inDegrees=no
num_controls=7
num_derivatives=13
num_iterations=119
num_multipliers=7
num_parameters=0
num_slacks=7
num_states=26
objective=0.445667
objective_accelerations=0.057533
objective_balance=0.003546
objective_effort=0.022913
objective_height=0.356136
objective_ligament=0.005539
solver_duration=1660.186112
status=Solve_Succeeded
success=true
DataType=double
version=3
OpenSimVersion=4.5
endheader
time	/jointset/ground_pelvis/pelvis_tilt/value	/jointset/ground_pelvis/pelvis_tx/value	/jointset/ground_pelvis/pelvis_ty/value	/jointset/hip_l/hip_flexion_l/value	/jointset/hip_l/hip_adduction_l/value	/jointset/hip_l/hip_rotation_l/value	/jointset/back/lumbar_extension/value	/jointset/patellofemoral_l/patellar_flexion_l/value	/jointset/knee_l/knee_flexion_l/value	/jointset/knee_l/knee_adduction_l/value	/jointset/knee_l/knee_rotation_l/value	/jointset/ankle_l/ankle_angle_l/value	/jointset/subtalar_l/subtalar_angle_l/value	/jointset/ground_pelvis/pelvis_tilt/speed	/jointset/ground_pelvis/pelvis_tx/speed	/jointset/ground_pelvis/pelvis_ty/speed	/jointset/hip_l/hip_flexion_l/speed	/jointset/hip_l/hip_adduction_l/speed	/jointset/hip_l/hip_rotation_l/speed	/jointset/back/lumbar_extension/speed	/jointset/patellofemoral_l/patellar_flexion_l/speed	/jointset/knee_l/knee_flexion_l/speed	/jointset/knee_l/knee_adduction_l/speed	/jointset/knee_l/knee_rotation_l/speed	/jointset/ankle_l/ankle_angle_l/speed	/jointset/subtalar_l/subtalar_angle_l/speed	/forceset/tau_hip_flexion_l	/forceset/tau_hip_adduction_l	/forceset/tau_hip_rotation_l	/forceset/tau_knee_flexion_l	/forceset/tau_ankle_angle_l	/forceset/tau_subtalar_angle_l	/forceset/tau_lumbar_extension	lambda_cid13_p0	lambda_cid13_p1	lambda_cid13_p2	lambda_cid13_p3	lambda_cid13_p4	lambda_cid13_p5	lambda_cid14_p0	/jointset/ground_pelvis/pelvis_tilt/accel	/jointset/ground_pelvis/pelvis_tx/accel	/jointset/ground_pelvis/pelvis_ty/accel	/jointset/hip_l/hip_flexion_l/accel	/jointset/hip_l/hip_adduction_l/accel	/jointset/hip_l/hip_rotation_l/accel	/jointset/back/lumbar_extension/accel	/jointset/patellofemoral_l/patellar_flexion_l/accel	/jointset/knee_l/knee_flexion_l/accel	/jointset/knee_l/knee_adduction_l/accel	/jointset/knee_l/knee_rotation_l/accel	/jointset/ankle_l/ankle_angle_l/accel	/jointset/subtalar_l/subtalar_angle_l/accel	gamma_cid13_p0	gamma_cid13_p1	gamma_cid13_p2	gamma_cid13_p3	gamma_cid13_p4	gamma_cid13_p5	gamma_cid14_p0
1	-0.546237966904533	-0.08036162655877754	0.5738982354230561	1.833083522572807	-0.4677334906843653	0.01266998579240786	-0.2617765020605711	1.387654258400491	1.387654258400561	-0.08178969356691702	-0.1745220097203348	0.2228887630715626	-0.008852878962876808	-0.01614503439604345	0.01112367424539171	0.003045725059538998	-0.004304032771359866	-0.0027466384675411	0.003278149967649319	2.221503499753906e-05	0.001100859111096898	0.001100859111097007	-0.005793262579897268	-0.0003361135655933998	0.0212961217139565	0.008953848107133787	-0.3323751272655759	0.01468248781326572	0.0001714213486625968	-0.3053086521854476	0.03677236656700403	0.0304533364281408	0.2840182576296107	-28.10651505380679	-8.979315353021855	1.866276281767467	7.680198869495718	-642.6945045338528	-47.6999851416625	-1.345161216595049	1.522415495198317	0.2387245466832795	1.96886609986368	-6.815951119173811	-0.07895022352818266	-2.335760066494374	-0.01886321408086194	-5.306394076989558	-5.306394076989432	-0.6126656211756788	-0.03574308972955877	-0.6934091655769197	-0.4731067007001626	5.300155356927613e-09	2.041572516619961e-08	-1.309205174607207e-08	3.547302116539498e-09	-1.540431097238909e-09	2.337464023816309e-08	3.023536397445541e-09
1.01	-0.5463242341621917	-0.08023851818346012	0.5740269874009352	1.832701009495971	-0.4677638057376592	0.01258486924401496	-0.2617762202587774	1.387400062963156	1.387400062963122	-0.08187543483806022	-0.1745257160626991	0.2230672137266898	-0.00878547335278816	-0.001108368602571819	0.01349930716811084	0.02270063171444873	-0.07218759109331432	-0.003304446913489675	-0.02028995108631082	3.369860635024168e-05	-0.05193899793655406	-0.05193899793655388	-0.01135028747734173	-0.0003876812015165815	0.01438721539932302	0.004538169427363589	-0.332279833350925	0.01481087564683567	0.0001551582929681959	-0.3051296264374879	0.03657055605228671	0.03046974589393114	0.2839438640142883	-28.15817740935459	-8.981129316902132	1.870829483759351	7.637921439894946	-642.5440033691325	-47.70744187758631	-1.350381354446784	1.494298270858589	0.2371794801108349	1.963194838081786	-6.772910827562746	-0.04240873650833293	-2.365614035791949	0.01108713505947958	-5.302637441275309	-5.302637441275368	-0.5265180336457336	0.01276565998778757	-0.6906495839593693	-0.4241695949504814	-2.513099613672966e-09	1.250781896032335e-08	2.914881311850489e-08	4.305267971850723e-09	-1.135069622531569e-08	7.283467604654654e-08	-8.786777879223848e-09
1.02	-0.5462601335320292	-0.08009161411590657	0.5743521668233185	1.831639990308142	-0.4677993413916892	0.01226441590288847	-0.2617758370228084	1.386615497770821	1.386615497770683	-0.08201660578010563	-0.1745294122293286	0.2231763716747597	-0.008761898758164272	0.0139285431683806	0.01588281269262305	0.04233121396044138	-0.140005254969528	-0.003790758614640503	-0.04378920857807622	4.250187034823493e-05	-0.1049730918891033	-0.1049730918891036	-0.01687919675946324	-0.0003340784169812836	0.007437580302576689	0.0001876450141910711	-0.3321845394362827	0.01493926348039181	0.0001388952372277875	-0.3049506006895292	0.03636874553756626	0.03048615535970259	0.2838694703989593	-28.21578276899572	-8.981840996447534	1.875136506086664	7.618706344903123	-642.4767885347051	-47.69330218818256	-1.365888415697478	1.522464690694484	0.2402990670418801	1.964001218080264	-6.802772230025638	-0.06465087456857196	-2.321991354055366	-0.0193992755518384	-5.305241457969224	-5.305241457969221	-0.6070424981110599	-0.01470900563774621	-0.7015549219995062	-0.4600758473805577	-1.083471917601896e-08	3.843090116496652e-09	7.115514971004003e-08	5.592799509219726e-09	-2.157574988746504e-08	1.220656899116499e-07	-2.072835011821971e-08
1.03	-0.5460456252805552	-0.07992079425222889	0.5748734599715606	1.829901249386785	-0.4678393021256367	0.01170941365889694	-0.2617753853847403	1.385300701176154	1.385300701176118	-0.08221289492312799	-0.1745319959629663	0.223215774431061	-0.00878142878150928	0.02897618999825595	0.01828651290772851	0.06191634169566736	-0.2077187545245915	-0.004180457449609417	-0.06718905390868858	4.74626585941379e-05	-0.1579774624641688	-0.1579774624641701	-0.02237009973541227	-0.0001582801517981671	0.0004308650164796685	-0.004074010942923217	-0.3317745007982574	0.01507815328739603	9.169010666460034e-05	-0.3046827007487335	0.03631253712124317	0.03058678452893254	0.2835833887159527	-28.20658088034638	-9.040743501358572	1.900047999185818	7.496312753826317	-642.1240910673599	-47.76822694473583	-1.391886930410137	1.496373682372141	0.2412098134378075	1.954101029395388	-6.752016658442303	-0.02299997483050467	-2.345673463573336	0.01038929321020017	-5.296713563623316	-5.296713563623435	-0.518846196503069	0.03741115598736318	-0.7020453191601905	-0.406277227956447	-1.916152613215827e-08	-4.829361407309139e-09	1.131590931559319e-07	6.885734778038302e-09	-3.180503608567635e-08	1.712943668181483e-07	-3.267126172417809e-08
1.04	-0.5456805487601361	-0.07972577652346155	0.5755902708927852	1.827486097901838	-0.4678825339653078	0.01092107449340228	-0.2617748950313509	1.383456125134466	1.383456125134533	-0.08246383949573968	-0.1745320843313305	0.2231847469370525	-0.008842988716041389	0.04404219695765494	0.0207223857105581	0.08143476855695539	-0.2752873676874788	-0.004444979759359273	-0.09045659287966849	5.024493473579573e-05	-0.2109289812931586	-0.2109289812931602	-0.02781028267801137	0.0001649946490244373	-0.006648469759433302	-0.008218337223221838	-0.3313644621602267	0.01521704309441097	4.44849761099452e-05	-0.3044148008079383	0.03625632870492195	0.03068741369817725	0.2832973070329497	-28.20335232424272	-9.098509001469553	1.924674193467695	7.397154363457924	-641.8551040106641	-47.82216697867694	-1.428646509757469	1.526136716599216	0.2467335845867033	1.950661043292676	-6.773794951590413	-0.03961556952474321	-2.295530082128863	-0.01983497797272672	-5.294671108754074	-5.294671108753962	-0.5968984914410648	0.01478630149018365	-0.7160788199627003	-0.4366099120174051	-2.666561617212777e-08	-1.220817937887723e-08	1.552157827960481e-07	8.168704681405177e-09	-4.143726691739343e-08	2.17625488257659e-07	-4.387781888059191e-08
1.05	-0.5451646745383061	-0.07950621330344378	0.5765018545591816	1.824396138245241	-0.4679276858406547	0.009900866343669455	-0.2617744037180122	1.381082387655709	1.381082387655766	-0.08276890792110035	-0.1745281133267402	0.2230824899029841	-0.008945318304141674	0.05913906629330196	0.02319804095353074	0.100863083959036	-0.3426639240241954	-0.004552615611859715	-0.113547760079983	4.731184549788622e-05	-0.2638011723196707	-0.2638011723196639	-0.0331900616519244	0.0006664785023013998	-0.01382183731831204	-0.01221652878172406	-0.3306672195308326	0.0154409176417503	-3.498765517748642e-05	-0.3039827580368115	0.03624704871552627	0.03084096625347937	0.2828124252022792	-28.16470010792005	-9.192211738953787	1.962740043713499	7.241206367886524	-641.2783214328509	-47.92394085699772	-1.476610906540837	1.502419311264646	0.2491507964872691	1.936074366894879	-6.713496598633492	0.008559956749624648	-2.31035301929612	0.009371642352955751	-5.280880653534028	-5.280880653532845	-0.5065364166261763	0.07346921629430458	-0.7208004291960841	-0.3767861819871212	-3.414399630846698e-08	-1.954657130193791e-08	1.972741207547339e-07	9.451363167101685e-09	-5.105083976890756e-08	2.638660610888263e-07	-5.506136496045746e-08
1.06	-0.5444976401692768	-0.07926165967052932	0.5776071528952444	1.820633630900493	-0.4679729345645542	0.008650857925870661	-0.2617739629122147	1.3781804507559	1.378180450755947	-0.08312737789945251	-0.1745179995258239	0.2229079322522577	-0.009086702288671126	0.07427422639763755	0.02572046828989973	0.1201777024902811	-0.4097969053177598	-0.004464349469868175	-0.1364166464928343	4.014342635151065e-05	-0.3165688655035526	-0.3165688655035386	-0.03849059327622866	0.001393553917489597	-0.02110859309101585	-0.01602921650904781	-0.3299699769014358	0.01566479218908876	-0.0001144602864726431	-0.3035507152656853	0.03623776872612955	0.0309945188087799	0.2823275433716115	-28.13207882323002	-9.284741507302764	2.000485317183609	7.108535197661681	-640.7860465742713	-48.00586630764662	-1.536282204753692	1.533794870336926	0.2560880032659812	1.927921669125564	-6.725079942959965	-0.0004351706263870684	-2.25107392463628	-0.02068204395445904	-5.273771540228004	-5.273771540228116	-0.581049021519328	0.05990461387235241	-0.7387564627277051	-0.3995091457817555	-4.086094082482947e-08	-2.550104002282509e-08	2.380607428261776e-07	1.11807372247635e-08	-6.003106258133708e-08	3.058133519951506e-07	-6.519289763212224e-08
1.07	-0.5436790308203575	-0.07899161274939544	0.5789049483447765	1.816201173640688	-0.4680162368231279	0.007173397668290447	-0.2617736236541685	1.374751469382716	1.374751469382709	-0.08353841631721237	-0.1744994243689774	0.222659895846659	-0.009265201914721868	0.08945528879246242	0.02829997054546385	0.1393543927238289	-0.4766358367370909	-0.004151793183437386	-0.1590246854210835	2.813541875049558e-05	-0.3691995005899794	-0.3691995005899772	-0.04369574628056574	0.00237148644354488	-0.02852116097972101	-0.01962683385313833	-0.3289470195377172	0.01592265999105292	-0.000225526522734297	-0.3030006433070605	0.03635750862174416	0.03121248893368195	0.2816181479620539	-28.03657732969453	-9.424604383592829	2.055310632840194	6.883520637148687	-639.9765311978052	-48.15479263772999	-1.608330833371178	1.511401288067692	0.2605421395837106	1.908479574587072	-6.654502056067717	0.05371883938676832	-2.258108550411988	0.008603906092166566	-5.253508015136164	-5.253508015137859	-0.4870737071806404	0.1243072699691566	-0.7458773336353738	-0.3333347006950379	-4.753738344651236e-08	-3.138189580742643e-08	2.78779720435534e-07	1.293387274901921e-08	-6.897759656190039e-08	3.475322768416428e-07	-7.526847214377634e-08
1.08	-0.5427083829746883	-0.07869543864512944	0.5803936980714673	1.81110208660376	-0.4680550899566155	0.005471369086726473	-0.261773391659145	1.37079702195421	1.370797021954151	-0.084000871318476	-0.1744695559472569	0.2223370596858344	-0.009478367048608025	0.1046819257477851	0.03094590491631904	0.1583685579220853	-0.5431228607423427	-0.003574524452647408	-0.1813303112890438	1.869082135390785e-05	-0.4216620765678519	-0.4216620765678611	-0.04877390997649359	0.003652206889479478	-0.03606854413616441	-0.02296231807612399	-0.3279240621739947	0.01618052779301068	-0.0003365927590200078	-0.3024505713484369	0.03647724851735586	0.03143045905857444	0.2809087525525018	-27.94716545520009	-9.563250170605416	2.109769700632997	6.681746166829785	-639.2522945194796	-48.28557369937516	-1.693479996257873	1.54290978243647	0.2693744263242036	1.895416662067311	-6.654698460144149	0.05250731824541079	-2.190591312578535	-0.02016936191360586	-5.240159718517123	-5.240159718517154	-0.5556511598374979	0.1204621978481379	-0.76571951627534	-0.3470825215608288	-5.433666686764196e-08	-3.844705884027372e-08	3.178824539095273e-07	1.45483998511159e-08	-7.786618532335745e-08	3.853452545641503e-07	-8.499115139938989e-08
